<?xml version="1.0" encoding="utf-8"?>
<!-- Generator: Adobe Illustrator 27.7.0, SVG Export Plug-In . SVG Version: 6.00 Build 0)  -->
<svg version="1.1" id="Capa_1" xmlns="http://www.w3.org/2000/svg" xmlns:xlink="http://www.w3.org/1999/xlink" x="0px" y="0px"
	 viewBox="0 0 60 60" style="enable-background:new 0 0 60 60;" xml:space="preserve">
<style type="text/css">
	.st0{fill:#FFFFFF;}
</style>
<g>
	<g>
		<path d="M5.4,60h49.3c3,0,5.4-2.4,5.4-5.4V5.4c0-3-2.4-5.4-5.4-5.4H5.4C2.4,0,0,2.4,0,5.4v49.3C0,57.6,2.4,60,5.4,60z"/>
	</g>
	<g>
		<path class="st0" d="M49.2,48.7L14.6,7.8C14.2,7.3,13.6,7,13,7H9C7.8,7,6.9,8,6.9,9.2v41.4c0,1.2,1,2.1,2.1,2.1h2.8
			c1.2,0,2.1-1,2.1-2.1V24.7c0-2,2.5-2.9,3.8-1.4l23.7,28c0.4,0.5,1,0.7,1.6,0.8l4.5,0.1C49.3,52.2,50.4,50.1,49.2,48.7z"/>
		<path class="st0" d="M50.9,7.1H29.5c-1.6,0-2.5,1.9-1.5,3.2l2.8,3.3c0.4,0.4,0.9,0.7,1.5,0.7h11.5c1.1,0,1.9,0.9,1.9,1.9v14.2
			c0,0.5,0.2,0.9,0.5,1.2l3.3,3.9c1.2,1.4,3.4,0.6,3.4-1.2v-20h0V9C52.9,7.9,52,7.1,50.9,7.1z"/>
	</g>
</g>
</svg>
